PathFileType	4	(X/Y/Z)	C:\Users\Basilio\Documents\Thesis Gigler\squatting_fais\c3dfiles\058\SJ_pre4\markers_experimental.trc
DataRate	CameraRate	NumFrames	NumMarkers	Units	OrigDataRate	OrigDataStartFrame	OrigNumFrames
200.000000	200.000000	4	61	mm	200.000000	0	1290
Frame#	Time	FHD			LBHD			RBHD			C7			T10			CLAV			LSHO			LUUPA			LMUPA			LDUPA			LLEP			LMEP			LRAD			LUL			LRFIN			RSHO			RUPA1			RMUPA			RDUPA			RLEP			RMEP			RRAD			RUL			RUFIN			LASI			RASI			USACR			LSACR			RSACR			LTHI1			LTHI2			LTHI3			LTHI4			LLFC			LMFC			LTIB1			LTIB2			LTIB3			LTIB4			LLMAL			LMMAL			LHEE			LMT1			LMT2			LMT5			RTHI			RTHI2			RTHI3			RTHI4			RLFC			RMFC			RTIB1			RTIB2			RTIB3			RTIB4			RLMAL			RMMAL			RHEE			RMT1			RMT2			RMT5			
		X1	Y1	Z1	X2	Y2	Z2	X3	Y3	Z3	X4	Y4	Z4	X5	Y5	Z5	X6	Y6	Z6	X7	Y7	Z7	X8	Y8	Z8	X9	Y9	Z9	X10	Y10	Z10	X11	Y11	Z11	X12	Y12	Z12	X13	Y13	Z13	X14	Y14	Z14	X15	Y15	Z15	X16	Y16	Z16	X17	Y17	Z17	X18	Y18	Z18	X19	Y19	Z19	X20	Y20	Z20	X21	Y21	Z21	X22	Y22	Z22	X23	Y23	Z23	X24	Y24	Z24	X25	Y25	Z25	X26	Y26	Z26	X27	Y27	Z27	X28	Y28	Z28	X29	Y29	Z29	X30	Y30	Z30	X31	Y31	Z31	X32	Y32	Z32	X33	Y33	Z33	X34	Y34	Z34	X35	Y35	Z35	X36	Y36	Z36	X37	Y37	Z37	X38	Y38	Z38	X39	Y39	Z39	X40	Y40	Z40	X41	Y41	Z41	X42	Y42	Z42	X43	Y43	Z43	X44	Y44	Z44	X45	Y45	Z45	X46	Y46	Z46	X47	Y47	Z47	X48	Y48	Z48	X49	Y49	Z49	X50	Y50	Z50	X51	Y51	Z51	X52	Y52	Z52	X53	Y53	Z53	X54	Y54	Z54	X55	Y55	Z55	X56	Y56	Z56	X57	Y57	Z57	X58	Y58	Z58	X59	Y59	Z59	X60	Y60	Z60	X61	Y61	Z61	

1	0	18.12314987182618	1581.172729492188	-819.5275878906252	-104.2330017089844	1695.860717773438	-887.6119384765627	26.21788406372071	1578.075317382813	-962.196716308594	-257.7102050781251	1570.319458007813	-911.0288696289065	-396.4567260742189	1270.931518554688	-899.7509765625002	-138.0413513183594	1448.2431640625	-891.8394165039065	-124.4830627441407	1512.15673828125	-1061.494506835938	-289.7387390136719	1449.814575195313	-1223.5830078125	-275.0839843750001	1400.981811523438	-1229.889282226563	-329.1235351562501	1402.282958984375	-1257.662231445313	-383.3774108886719	1343.851806640625	-1287.15576171875	-436.709686279297	1357.593139648438	-1235.104248046875	-402.409881591797	1147.821655273438	-1095.591186523438	-328.0469360351563	1144.150268554688	-1088.35107421875	-386.3170166015626	1092.002685546875	-1152.775756835938	-158.4712677001953	1533.197021484375	-727.0894165039064	-332.9843750000001	1461.4921875	-582.9652099609376	-314.9707641601563	1414.58251953125	-577.5136108398439	-366.5968933105469	1409.237548828125	-547.7955932617189	-414.8324279785157	1362.7197265625	-521.2816162109376	-472.433319091797	1353.506958007813	-590.2015991210939	-355.9518432617188	1156.390625	-683.2236328125001	-345.1904907226563	1109.740112304688	-618.1287841796876	-292.8851623535157	1115.891357421875	-709.8322753906251	-278.2649841308594	1021.574584960938	-1015.590026855469	-274.4835510253907	1020.049438476563	-782.984802246094	-442.0498352050782	1150.194458007813	-886.3605957031252	-457.1388549804689	1121.086181640625	-913.5083618164065	-454.8043823242189	1120.687255859375	-856.3679809570315	-326.7658996582032	767.5053710937501	-1122.143798828125	-292.8120727539063	689.1015625000001	-1126.88818359375	-246.0341949462891	689.5785522460939	-1104.1611328125	-318.6396179199219	635.3998413085939	-1117.885864257813	-304.0761413574219	540.8472290039064	-1120.791625976563	-282.1490173339844	519.5605468750001	-996.954528808594	-250.472640991211	402.1866149902345	-1099.794067382813	-302.6724243164063	377.7884826660157	-1162.505615234375	-266.1310119628907	362.9775390625001	-1138.541870117188	-273.3115844726563	279.0319213867188	-1124.439331054688	-347.3756103515626	90.87601470947267	-1165.009521484375	-321.9327392578126	95.01134490966798	-1073.416137695313	-410.0679321289064	50.39245605468751	-1116.9423828125	-181.4443664550782	62.41420364379884	-1111.227416992188	-182.2606658935547	62.08731079101564	-1158.131469726563	-232.0766143798829	38.00296783447266	-1211.16943359375	-370.9137268066407	841.4926757812502	-686.4085693359376	-326.3557128906251	792.0828857421877	-676.6882934570314	-293.7378845214844	794.8613891601565	-681.3921508789064	-344.6345825195313	709.6586914062501	-684.6943359375001	-316.9938354492188	535.9011840820314	-676.5517578125001	-292.8037414550782	504.4274291992189	-804.9656982421877	-276.6976928710938	323.3574523925782	-730.0433349609376	-313.1141967773438	258.7022094726563	-648.2730712890626	-280.7435607910157	246.1005096435547	-681.8592529296876	-294.4440002441407	196.6974639892579	-708.1235961914064	-352.0153808593751	95.40724945068361	-646.7197875976564	-325.5827941894532	104.8888549804688	-738.0699462890626	-416.322723388672	49.0049171447754	-702.8693847656251	-195.6295471191407	57.60578918457033	-707.4938964843751	-193.9507141113282	62.31259536743165	-657.0763549804689	-238.3142242431641	28.03340148925782	-602.4132690429689	
2	0.005	17.55310821533203	1580.45849609375	-818.0000000000002	-103.879020690918	1696.516479492188	-885.526550292969	26.21618461608887	1578.313354492188	-960.4271240234377	-257.6484680175782	1570.302124023438	-908.9777832031252	-396.3282165527345	1270.9765625	-898.3267211914065	-138.2719879150391	1448.24462890625	-889.896423339844	-124.4608764648438	1512.471313476563	-1059.699462890625	-289.9844970703126	1450.474487304688	-1221.515747070313	-275.1912231445313	1401.617553710938	-1228.045166015625	-329.3087768554688	1402.93359375	-1255.7568359375	-383.3614807128907	1344.415283203125	-1285.503295898438	-436.8685913085939	1358.080444335938	-1233.262084960938	-402.4960327148439	1148.186279296875	-1094.241943359375	-328.2563476562501	1144.560546875	-1087.004516601563	-386.5274047851564	1092.436401367188	-1151.451293945313	-158.3923034667969	1532.799072265625	-725.1504516601564	-332.8785705566407	1460.859375	-581.1036376953126	-315.0690002441407	1414.086791992188	-575.6979980468751	-366.4828491210938	1408.673583984375	-545.9960327148439	-414.6744689941407	1362.006103515625	-519.4660644531251	-472.3770446777345	1353.118041992188	-588.4251708984376	-355.8090209960938	1156.229858398438	-681.8569335937501	-345.2026672363282	1109.36767578125	-617.1047363281251	-292.7388916015626	1115.806884765625	-708.7938232421876	-278.2568359375001	1021.639404296875	-1014.579040527344	-274.4427795410157	1019.966125488281	-782.0745849609377	-442.1260375976564	1150.304565429688	-885.281677246094	-457.1004943847657	1121.181396484375	-912.4372558593752	-454.7965698242189	1120.723022460938	-855.0854492187502	-327.0397338867188	767.6687011718751	-1121.263549804688	-293.2168579101563	689.2484130859376	-1126.1806640625	-246.5482482910157	689.3729858398439	-1103.30322265625	-319.1535339355469	635.5648803710939	-1117.250854492188	-304.6325988769532	540.9768676757814	-1120.174438476563	-282.4312744140626	519.6525268554689	-996.315124511719	-251.0663299560547	402.2770996093751	-1099.37890625	-303.1272277832032	378.0279541015626	-1162.123779296875	-266.3659667968751	363.3474121093751	-1138.288940429688	-273.5744323730469	279.2404174804688	-1124.159790039063	-347.0510559082032	90.99890136718751	-1164.935424804688	-321.7809143066407	95.04032135009767	-1073.415893554688	-409.1292419433595	49.68408966064455	-1117.156616210938	-181.4392547607422	62.39635467529298	-1111.177001953125	-182.2540435791016	62.16909027099611	-1158.08447265625	-232.0630645751954	38.06732940673829	-1211.086791992188	-370.8003540039063	841.739685058594	-685.5636596679689	-326.1606140136719	792.4936523437502	-676.0608520507814	-293.5442504882813	795.1814575195315	-680.7578125000001	-344.2853698730469	709.8949584960939	-683.8576660156251	-317.0500183105469	535.8086547851564	-676.0241088867189	-291.6840209960938	504.9225158691407	-804.8484497070315	-276.9709472656251	323.2309265136719	-729.4770507812501	-313.5046081542969	258.4454345703126	-647.8429565429689	-280.8948059082032	245.9710845947266	-681.4769897460939	-294.3870544433594	196.6570739746094	-707.7666015625001	-352.0750427246094	95.29946136474611	-646.6600341796876	-325.5003967285157	104.8575286865235	-738.0363159179689	-416.2485656738282	48.94255447387697	-702.8444824218751	-195.6083679199219	57.59445953369142	-707.2670898437501	-193.9289550781251	62.28707504272462	-656.8860473632814	-238.3379211425782	27.91842460632325	-602.2988281250001	
3	0.01	18.10044479370118	1581.113525390625	-815.8753051757815	-104.2951431274414	1695.814086914063	-883.4124145507815	26.13172912597657	1578.482299804688	-958.544616699219	-257.7221679687501	1570.349365234375	-906.9543457031252	-396.3503723144532	1271.029052734375	-896.9423828125002	-138.1670379638672	1448.101684570313	-888.1501464843752	-124.2488174438477	1512.639404296875	-1057.855590820313	-289.9291381835938	1451.078125	-1219.5244140625	-275.3135375976563	1402.30029296875	-1226.310180664063	-329.5451049804688	1403.678955078125	-1254.03369140625	-383.4436950683594	1345.003051757813	-1283.916137695313	-436.8162231445314	1358.585571289063	-1231.695556640625	-402.7093505859376	1148.545166015625	-1092.888916015625	-328.5311889648438	1144.924194335938	-1085.711669921875	-386.4778442382814	1092.90087890625	-1150.095703125	-158.3383178710938	1532.51513671875	-723.2328491210939	-332.9855957031251	1460.462890625	-579.1439208984376	-315.0811157226563	1413.6845703125	-573.7008056640626	-366.4415283203126	1408.078979492188	-544.1628417968751	-414.4607238769532	1361.458251953125	-517.6951293945314	-472.3052978515626	1352.83740234375	-586.6757202148439	-355.9890441894532	1156.029174804688	-680.7656250000001	-345.2217407226563	1109.09521484375	-615.9719848632814	-292.8604431152344	1115.615844726563	-707.5018310546876	-278.4985961914063	1021.660766601563	-1013.394226074219	-274.3682861328126	1019.885375976563	-780.9588012695315	-441.9041748046876	1150.36474609375	-883.8265380859377	-457.2777099609376	1121.304077148438	-911.234313964844	-454.7443847656251	1120.795776367188	-854.089782714844	-327.5430297851563	767.7335815429689	-1120.418579101563	-293.6848449707032	689.3362426757814	-1125.189086914063	-246.9002227783204	689.5817260742189	-1102.493530273438	-319.6540222167969	635.6906127929689	-1116.6103515625	-305.2922973632813	541.0899047851564	-1119.638671875	-282.3337097167969	520.3035278320314	-996.9827880859377	-251.6096496582032	402.329315185547	-1098.927978515625	-303.6074829101563	378.2295837402344	-1161.681396484375	-266.7572326660157	363.5954284667969	-1138.031127929688	-273.5417175292969	279.5404052734376	-1123.931640625	-346.7633666992188	91.13093566894533	-1164.931030273438	-321.5301513671876	95.09995269775392	-1073.437744140625	-410.1183166503907	50.40492630004884	-1116.810791015625	-181.4625396728516	62.44568634033205	-1111.054077148438	-182.1674346923828	62.252498626709	-1158.028442382813	-232.1153717041016	38.1842269897461	-1210.971435546875	-370.7582092285157	841.8806152343752	-684.7268066406251	-325.9872436523438	792.7382812500002	-675.3179931640626	-293.6437988281251	795.5836181640627	-679.9934082031251	-344.0759582519532	710.1412963867189	-682.9935913085939	-317.4225463867188	535.6503295898439	-675.3049316406251	-291.3706054687501	504.8924560546876	-804.1259765625002	-277.0789184570313	323.1785888671876	-728.8916625976564	-313.7731018066407	258.3911437988282	-647.4888916015626	-281.2607727050782	245.7981567382813	-680.8901977539064	-294.2153625488282	196.6062622070313	-707.4799194335939	-352.1444702148438	95.19510650634767	-646.5968627929689	-325.5463867187501	104.7940063476563	-737.9624023437501	-416.2434082031251	48.90940093994142	-702.7988281250001	-195.6224060058594	57.59656906127931	-707.1120605468751	-193.9302368164063	62.22105026245119	-656.6896972656251	-238.3929595947266	27.8094654083252	-602.0806884765626	
4	0.015	17.80019760131836	1580.353393554688	-814.3073730468752	-104.1400756835938	1696.561279296875	-881.1972656250002	26.0139446258545	1578.6826171875	-956.6156005859377	-257.7984619140626	1570.36572265625	-904.9171142578127	-396.3931274414064	1271.155151367188	-895.363708496094	-138.3511962890625	1448.0498046875	-886.218933105469	-124.254020690918	1512.885986328125	-1055.834106445313	-290.2882995605469	1451.664428710938	-1217.600463867188	-275.3114318847657	1403.003295898438	-1224.555297851563	-329.4447937011719	1404.349243164063	-1252.247924804688	-383.5409545898438	1345.765747070313	-1282.260131835938	-436.8197021484376	1359.159545898438	-1229.979248046875	-402.8378906250001	1148.947021484375	-1091.57763671875	-328.5404357910157	1145.368041992188	-1084.443481445313	-386.681854248047	1093.392822265625	-1148.90234375	-158.201400756836	1532.2783203125	-721.3146972656251	-332.8310241699219	1460.0380859375	-577.1135253906251	-314.9874572753907	1413.098999023438	-571.8833618164064	-366.2711486816407	1407.601684570313	-542.3524780273439	-414.4706115722657	1360.98828125	-515.8610839843751	-472.1927490234376	1352.48828125	-584.8198242187501	-355.7898864746094	1155.899291992188	-679.3533935546876	-345.2745361328126	1108.80908203125	-614.9590454101564	-292.8928833007813	1115.471435546875	-706.2256469726564	-278.3629455566407	1021.788208007813	-1012.414367675781	-275.0559692382813	1018.816101074219	-779.7789306640627	-441.9515991210939	1150.407104492188	-882.7113037109377	-457.1092224121095	1121.430419921875	-910.0786132812502	-454.7102661132814	1120.820678710938	-852.7567138671877	-327.9903564453126	767.8378295898439	-1119.6142578125	-294.1601562500001	689.4981689453126	-1124.363525390625	-247.4998168945313	689.6364746093751	-1101.552368164063	-320.3136596679688	635.7070922851564	-1116.083374023438	-305.9281005859376	541.2929687500001	-1119.033203125	-282.8359069824219	520.3800659179689	-996.361755371094	-251.9215850830079	402.5373535156251	-1098.602416992188	-304.1843566894532	378.3799133300782	-1161.1796875	-267.3652648925782	363.7584228515626	-1137.64404296875	-273.6119079589844	279.7862854003907	-1123.775268554688	-346.5095520019532	91.26364135742189	-1164.93017578125	-321.4408264160157	95.15842437744142	-1073.433715820313	-410.1163940429689	50.41215133666994	-1116.7509765625	-181.4013671875	62.51938629150392	-1111.005615234375	-182.2022552490235	62.3303680419922	-1157.974487304688	-232.1619110107422	38.28274536132813	-1210.899780273438	-370.8093872070313	842.0866699218752	-683.8839721679689	-325.8514404296876	793.0780029296877	-674.4714965820314	-293.6996459960938	795.8135375976565	-679.2860107421876	-344.0199890136719	710.2347412109376	-682.2375488281251	-317.7754211425782	535.4758300781251	-674.5623168945314	-291.2202453613282	504.9375610351564	-803.3895263671877	-277.2856750488282	323.0560607910157	-728.3085937500001	-313.8252563476563	258.2516479492188	-647.1908569335939	-281.3642578125001	245.5525665283204	-680.4641113281251	-294.1530151367188	196.5783996582032	-707.1598510742189	-352.3876953125001	94.9652557373047	-646.4496459960939	-325.5103454589844	104.7671127319336	-737.8711547851564	-416.2247314453126	48.8619728088379	-702.7545166015626	-195.6284637451172	57.55607223510744	-706.9472656250001	-193.9524078369141	62.1780242919922	-656.5603027343751	-238.3645629882813	27.65625381469727	-601.9467163085939	
